<?xml version="1.0" encoding="UTF-8"?>
<svg id="Layer_1" xmlns="http://www.w3.org/2000/svg" version="1.1" viewBox="0 0 1080 1080">
  <!-- Generator: Adobe Illustrator 29.0.1, SVG Export Plug-In . SVG Version: 2.1.0 Build 192)  -->
  <defs>
    <style>
      .st0 {
        fill: rgb(16 185 129);
      }
    </style>
  </defs>
  <path class="st0" d="M395.43,434.03l-63.38-59.81c-11.56-11.35-27.11-17.7-43.31-17.7H103.67c-34.14,0-61.82,27.68-61.82,61.82v184.4c0,16.59,6.67,32.49,18.52,44.12l63.38,59.8c11.56,11.35,27.11,17.7,43.3,17.7h185.08c34.14,0,61.82-27.67,61.82-61.82v-184.39c0-16.6-6.68-32.5-18.52-44.12ZM279.44,647.82c9.77,0,18.38-.82,25.82-2.46s13.72-4.11,18.85-7.4c9.17-5.89,13.9-10.42,20.57-23.84,1.39-2.8,4.73-4.02,7.57-2.73,2.13.97,3.4,3.07,3.4,5.28,0,.67-.11,1.35-.36,2.01l-18.8,50.6h-130.59c-4.42,0-8.01-3.58-8.01-8.01,0-1.74.57-3.43,1.62-4.82l87.06-115.18c9.23-12.21.52-29.72-14.79-29.72-6.26,0-11.86.3-16.8.9-4.95.6-9.24,1.5-12.89,2.7-7.28,2.41-13.66,6.17-19.14,11.28-4.63,4.31-6.4,6.37-10.54,11.53-1.53,1.91-4.15,2.57-6.4,1.6-2.08-.88-3.32-2.9-3.32-5.02,0-.76.16-1.54.5-2.28l19.37-42.17h125.87c4.48,0,8.11,3.63,8.11,8.1,0,1.77-.58,3.48-1.64,4.89l-88.89,117.77c-8.37,11.09-.46,26.97,13.43,26.97Z"/>
  <g>
  </g>
</svg>